PathFileType	4	(X/Y/Z)	Kaydara																																																																																																																									
DataRate	CameraRate	NumFrames	NumMarkers	Units	OrigDataRate	OrigDataStartFrame	OrigNumFrames																																																																																																																					
30	30	4	41	mm	30	76	151																																																																																																																					
Frame#	Time	SALE_LFHD			SALE_RFHD			SALE_LBHD			SALE_RBHD			SALE_LFTShould			SALE_RFTShould			SALE_LRRShould			SALE_RRRShould			SALE_T10			SALE_STRN			SALE_TRUN			SALE_LSHO			SALE_LUPA			SALE_LELB			SALE_LFRM			SALE_LWRA			SALE_LWRB			SALE_LFIN			SALE_RSHO			SALE_RUPA			SALE_RELB			SALE_RFRM			SALE_RWRB			SALE_RFIN			SALE_LFWT			SALE_RFWT			SALE_LBWT			SALE_RBWT			SALE_LTHI			SALE_LKNE			SALE_RWRA			SALE_LSHN			SALE_LANK			SALE_LHEE			SALE_LTOE			SALE_RTHI			SALE_RKNE			SALE_RSHN			SALE_RANK			SALE_RHEE			SALE_RTOE		
		X1	Y1	Z1	X2	Y2	Z2	X3	Y3	Z3	X4	Y4	Z4	X5	Y5	Z5	X6	Y6	Z6	X7	Y7	Z7	X8	Y8	Z8	X9	Y9	Z9	X10	Y10	Z10	X11	Y11	Z11	X12	Y12	Z12	X13	Y13	Z13	X14	Y14	Z14	X15	Y15	Z15	X16	Y16	Z16	X17	Y17	Z17	X18	Y18	Z18	X19	Y19	Z19	X20	Y20	Z20	X21	Y21	Z21	X22	Y22	Z22	X23	Y23	Z23	X24	Y24	Z24	X25	Y25	Z25	X26	Y26	Z26	X27	Y27	Z27	X28	Y28	Z28	X29	Y29	Z29	X30	Y30	Z30	X31	Y31	Z31	X32	Y32	Z32	X33	Y33	Z33	X34	Y34	Z34	X35	Y35	Z35	X36	Y36	Z36	X37	Y37	Z37	X38	Y38	Z38	X39	Y39	Z39	X40	Y40	Z40	X41	Y41	Z41
																																																																																																																												
76	2.51	181.5761	1603.1076	-1679.11835	50.02457	1597.3819	-1664.86923	164.38442	1567.06207	-1806.31012	39.55727	1561.5683	-1786.16928	203.50269	1334.50165	-1703.4523	62.97141	1319.61639	-1681.67206	169.66228	1412.66571	-1800.22293	24.74672	1401.63849	-1766.54144	85.85413	1274.08035	-1887.32147	139.49709	1246.71448	-1659.87396	146.56245	1152.62527	-1642.97028	297.13144	1381.57135	-1789.77646	327.12353	1216.6449	-1915.6601	309.57932	1128.59436	-1977.02133	354.14516	1036.08253	-2024.81552	341.47385	871.56906	-2026.91635	375.59792	901.73111	-2086.78513	396.86836	841.04927	-2073.18695	-55.19273	1351.91864	-1718.06931	-100.32275	1134.0554	-1805.25604	-119.19128	1028.25699	-1767.92297	-116.21439	917.74521	-1794.46442	-124.40251	776.81358	-1768.97491	-111.6778	718.35312	-1734.65378	263.21926	942.97318	-1795.65414	-12.67254	914.78554	-1784.44565	197.15605	1011.47713	-1954.3898	20.45253	1009.02092	-1939.37439	269.27938	640.58105	-1817.00409	243.65824	536.56853	-1650.06592	-65.65969	778.90709	-1722.44217	235.12594	322.49172	-1627.47238	224.95945	134.61035	-1662.00775	181.81429	75.17531	-1718.92303	202.76941	117.22115	-1529.96155	-8.12352	704.35654	-1996.73065	18.14801	526.60046	-1942.6236	71.93725	346.58772	-2019.76013	30.45767	121.13993	-2149.47235	42.55749	77.30575	-2044.84329	72.75079	69.77594	-2236.79398
77	2.543	183.18645	1584.90936	-1644.1748	51.39986	1579.41193	-1629.3306	165.61087	1549.36829	-1772.10693	40.79699	1543.52036	-1750.75943	205.96588	1316.59973	-1670.11215	64.52793	1298.28888	-1649.0239	171.24203	1396.43616	-1765.65948	26.05345	1384.17114	-1732.11853	87.38548	1260.04379	-1856.34872	141.73193	1225.33226	-1630.49057	148.83935	1130.92735	-1615.96771	298.4934	1365.48737	-1756.53976	325.79449	1210.67947	-1893.44681	309.65651	1126.26396	-1959.4725	355.59277	1042.35291	-2018.86154	352.40543	877.30339	-2036.20026	378.95199	916.06987	-2095.24368	404.67625	856.68938	-2090.13824	-53.41811	1332.87415	-1684.5549	-103.4449	1111.60156	-1764.87381	-121.90292	1007.00638	-1722.73926	-116.99409	894.7274	-1741.6864	-120.86151	756.03455	-1704.05136	-109.92095	703.91533	-1660.66956	264.35591	927.01714	-1767.40021	-11.68909	903.32512	-1753.99994	199.6447	993.4111	-1928.08731	21.09191	995.68535	-1911.3559	262.40389	626.2093	-1779.34769	242.42903	531.76807	-1603.62137	-63.12847	765.15648	-1655.49026	237.48503	321.20316	-1565.37567	233.43546	131.13433	-1586.38763	195.0008	66.47423	-1640.33997	204.45032	122.47385	-1453.39874	-15.61387	703.56094	-1973.83514	11.77161	524.36821	-1934.4873	65.47496	349.60873	-2018.25211	28.09011	124.69202	-2150.11002	41.02171	76.75369	-2045.69489	72.91405	75.39019	-2236.89423
78	2.577	186.7955	1568.58795	-1607.43164	54.99901	1561.43173	-1591.20987	168.16143	1532.3732	-1735.13641	43.59245	1525.57983	-1712.8598	211.01894	1296.93512	-1634.76639	69.13891	1278.57651	-1614.49585	175.62952	1380.71259	-1729.22913	30.21035	1368.17535	-1694.54742	90.55459	1246.68495	-1822.15637	145.63654	1204.90707	-1598.51196	152.0313	1110.15579	-1586.49261	302.4383	1349.91486	-1720.70572	327.94441	1203.28041	-1865.36438	313.46004	1122.49756	-1935.81375	359.11949	1047.93335	-2004.25476	363.90965	884.51492	-2036.26022	383.5442	930.4068	-2093.02368	413.16071	873.54736	-2095.48126	-48.95447	1315.64133	-1647.14874	-101.935	1093.39867	-1726.75186	-121.58923	989.92462	-1679.9144	-115.44789	875.26047	-1689.23798	-115.00033	739.40598	-1638.78723	-107.70036	698.53745	-1585.12283	264.99228	909.80515	-1734.0329	-11.37547	891.89972	-1722.66144	202.08218	975.91423	-1897.11334	21.85209	983.28499	-1881.48911	262.09736	611.50173	-1734.14566	242.55743	527.71469	-1552.7243	-57.8741	755.30327	-1591.84982	239.3556	317.44562	-1514.40262	239.14011	127.71486	-1537.06802	202.86119	63.99549	-1592.98401	208.60388	117.38398	-1404.74747	-20.27709	702.76009	-1947.98431	8.35215	518.87074	-1916.68365	61.77131	347.77702	-2009.7319	22.55905	128.36821	-2151.74911	38.5457	76.38935	-2048.71506	64.95267	82.62584	-2240.0087
79	2.61	192.59007	1557.64954	-1567.59247	61.13095	1549.19479	-1550.72784	173.55885	1521.34415	-1695.25909	49.18738	1513.44437	-1672.29599	217.35126	1282.77817	-1595.55634	75.49578	1266.09276	-1574.73022	182.64786	1369.47708	-1689.19617	36.94077	1358.16956	-1653.10257	95.43089	1237.52396	-1782.70676	150.46259	1190.85632	-1560.84564	155.03685	1096.01501	-1550.13275	308.5253	1337.98264	-1681.30234	332.08958	1197.98904	-1831.31256	319.45745	1119.17526	-1904.25217	364.94995	1053.05603	-1979.21585	376.85562	892.24442	-2023.12836	390.57991	943.78761	-2076.83395	424.02969	890.97992	-2088.01025	-42.22697	1305.48401	-1605.77713	-97.11267	1083.39073	-1685.22003	-118.41337	980.39085	-1636.98837	-111.10487	864.72977	-1638.83957	-108.27191	732.44232	-1576.91513	-105.45851	705.28168	-1515.39886	262.30932	897.97386	-1694.57672	-16.31022	883.43849	-1691.12228	205.45416	965.21812	-1859.43253	24.82756	973.42827	-1847.58682	262.35941	606.62506	-1684.71313	245.19428	525.98145	-1502.2522	-52.32288	754.4426	-1531.25595	240.39886	311.86975	-1481.76636	238.77882	125.29487	-1522.89734	201.28969	66.5795	-1584.34967	211.52168	101.78819	-1391.90414	-17.10223	695.66429	-1919.57245	4.98877	515.11902	-1895.19714	60.11644	346.27628	-1994.53049	20.05103	135.4861	-2149.16748	36.95923	76.07088	-2049.72046	63.20755	95.16878	-2239.59061
